<?xml version="1.0" encoding="utf-8"?>
<!-- Generator: Adobe Illustrator 22.0.1, SVG Export Plug-In . SVG Version: 6.00 Build 0)  -->
<svg version="1.1" id="Ebene_1" xmlns="http://www.w3.org/2000/svg" xmlns:xlink="http://www.w3.org/1999/xlink" x="0px" y="0px"
	 viewBox="0 0 540 489.1" style="enable-background:new 0 0 540 489.1;" xml:space="preserve">
<style type="text/css">
	.st0{fill:#CB955F;}
	.st1{fill:#DDAD78;}
	.st2{fill:#FFFFFF;}
</style>
<g>
	<path class="st0" d="M99.2,355c0-5.4,0-10.7,0.1-16.1c0.1-15.7,0-31.3,0.3-47c0.4-27.1,0.1-54.2,0.5-81.3
		c0.4-27.3,0.2-54.5,0.5-81.8c0-0.9-0.2-1.8,0.2-2.6c1.5-0.2,2.8,0.6,4.1,1c11.4,3.1,22.8,6.1,34.3,9.1c3.4,0.9,6.7,2,10.2,2.5
		c0.5,0,1,0,1.5,0l0,0c0.8,0.8,2,0.9,3.1,1.2c21.1,5.6,42.3,11.2,63.4,16.8c26.5,7,53.1,14,79.6,21.1c8.3,2.2,16.5,4.4,24.8,6.6
		c0.3,0.1,0.6,0.3,0.9,0.4c6.5,1.6,12.9,3.8,19.6,4.9c1.1,0.2,2.1,0.6,3.2,0.9c0.5,0.1,0.9,0.5,0.8,1c-0.6,1.9-0.1,3.8-0.5,5.7
		c-0.6,2.7-0.4,5.4-0.2,8.1c0,2.1-0.1,4.3-0.1,6.4c-1.5,0.3-1,1.5-1,2.3c0,14.7,0,29.4,0,44.1c0,0.8-0.1,1.6,0.2,2.4
		c0.6,3.9,0.5,7.8,0.4,11.7c-1.7,0.2-1,1.6-1.1,2.4c-0.3,41.3,0.6,82.6-0.5,123.9c-0.1,3.1,0,6.2,0,9.4c0,13.1,0,26.2,0,39.3
		c-5.2-1.2-10.3-2.9-15.4-4.4c-25.6-7.6-51.3-15.2-76.9-22.8c-18.4-5.5-36.9-11-55.3-16.5c-18.4-5.5-36.9-11-55.3-16.5
		c-1.1-0.3-2.2-1.1-3.4,0.1c-0.3,0.3-0.8,0-1.1-0.2c-10.4-5.2-21.7-7.4-32.7-10.9c-3.9-1.3-4-1.2-4.1-5.3c0-0.2,0-0.5,0-0.7
		c0.1-0.2,0.3-0.4,0.3-0.6C99.3,364.6,99.6,359.8,99.2,355z"/>
	<path class="st1" d="M345.3,205.3c-0.2-2.7-0.4-5.4,0.2-8.1c0.4-1.8-0.1-3.8,0.5-5.7c0.2-0.5-0.2-0.9-0.8-1
		c-1.1-0.3-2.1-0.7-3.2-0.9c-6.7-1.2-13-3.4-19.6-4.9c-0.3-0.1-0.6-0.3-0.9-0.4c0.1-1-0.7-1.1-1.4-1.3c-5.1-1.5-10.1-2.9-15.2-4.4
		c-13.3-3.8-26.7-7.5-40.1-11c-8.3-2.2-16.5-4.5-24.7-6.6c-14.5-3.8-29-7.5-43.5-11.2c-12.5-3.2-25-6.4-37.6-9.5
		c-2.8-0.7-5.5-1.8-8.4-1.6c0,0,0,0,0,0c-0.5-0.6-1-0.7-1.5,0c-3.5-0.5-6.8-1.6-10.2-2.5c-11.4-3-22.9-6-34.3-9.1
		c-1.4-0.4-2.6-1.1-4.1-1c0.3-0.7,1-0.8,1.6-0.9c17.2-4.6,34.3-9.2,51.5-13.9c9.3-2.5,18.6-5,27.9-7.5c0.4-0.1,0.8-0.1,1.2-0.2
		c1.7,1.1,3.8,1.2,5.7,1.6c8.6,2.1,17.3,4.3,25.9,6.4c9.6,2.4,19.2,4.7,28.8,7c9.8,2.4,19.6,4.8,29.4,7.3c9.7,2.4,19.5,4.8,29.2,7.2
		c9.1,2.2,18.2,4.5,27.4,6.7c8.6,2.1,17.1,4.2,25.7,6.3c12,2.9,24,5.9,35.9,8.8c6.6,1.6,13.3,3.2,19.9,4.9c0.8,0.2,2,0,2.5,1.1
		c-0.4,0.5-0.9,0.6-1.4,0.8c-8.2,3.5-16.4,7-24.6,10.5c-7.8,3.4-15.7,6.7-23.5,10.2c-2.3,1-4.7,1.8-6.7,3.3c1.2-0.3,2.4-0.8,3.5-1.3
		c8.6-3.5,17.1-7,25.7-10.5c10.3-4.2,20.5-8.4,30.8-12.6c0.3,1.8-0.4,3.5-0.4,5.2c0.1,3.2-0.5,6.3-0.6,9.5c-0.1,2.3-0.2,4.6-0.4,6.9
		c-0.4,3.6-1,7.2-0.9,10.9c0,0.2,0.1,0.3,0.3,0.3c0.3-0.4,0.5-0.7,0.8-1.1c1.6,2.3,1.6,2.3,3.1,0c0-0.1,0.1-0.1,0.2-0.1
		c1.9,1.2,1.9,1.2,3.1-1c0.1-0.2,0.2-0.4,0.6-0.4c1.1,0.5,1.1,2.1,2.2,2.8c0.8-1.9,0.9-3.9,1.4-5.7c0.8-0.4,1.1,0.6,2,0.4
		c0.5-0.8,0.6-2.6,2.4-1.4c0.1,0,0.5-0.2,0.5-0.4c0.6-1.6,1.8-3,1.7-4.9c-0.2-3.3,0.4-6.5,0.6-9.8c0.1-2.3,0.1-4.6,0.4-6.9
		c0.5-3.9,0.8-7.7,0.9-11.6c0.4-0.2,0.9-0.4,1.3-0.6c10.7-4.4,21.4-8.8,32.1-13.2c2.9-1.2,6-2.2,8.7-3.8c0.2-0.1,0.4-0.1,0.5-0.2
		c-0.1,0-0.1-0.1-0.2-0.1c-0.1,0.1-0.2,0.2-0.3,0.3c-0.5,0.1-1.1,0.1-1.6,0.3c-8.4,3.1-16.9,6.2-25.3,9.4
		c-6.2,2.3-12.3,4.8-18.4,7.2c-0.5-0.2-1-0.4-1.6-0.5c-10.2-2.5-20.4-4.9-30.6-7.4c-7.9-1.9-15.7-4-23.6-5.8
		c-13.2-3.1-26.3-6.4-39.4-9.6c-8.6-2.1-17.1-4.2-25.7-6.3c-14.9-3.6-29.8-7.3-44.7-10.9c-7.9-1.9-15.8-3.9-23.6-5.8
		c-11.5-2.8-23-5.6-34.5-8.5c-0.9-0.2-2,0-2.6-1c3.5-1.4,7.2-2.1,10.8-3.1c15.7-4.3,31.5-8.5,47.2-12.7c1.5-0.4,3-0.5,4.5-0.1
		c17.6,4.3,35.2,8.6,52.8,13c17.1,4.2,34.1,8.4,51.2,12.6c16.7,4.1,33.5,8.2,50.2,12.3c17.1,4.2,34.3,8.4,51.4,12.6
		c2.6,0.6,5.3,1.3,7.9,1.9c1.2,0.3,1.7,0.8,1.7,2.1c-0.1,8.9,0,17.8-0.3,26.6c-0.1,3.6-0.2,7.2-0.3,10.8
		c-0.2,18.5-0.3,37.1-0.7,55.6c-0.3,11.1,0,22.2-0.5,33.3c-0.4,11.3-0.1,22.5-0.5,33.8c-0.4,11.3-0.1,22.5-0.5,33.8
		c-0.4,11.6-0.1,23.2-0.5,34.8c-0.3,7.4-0.2,14.7-0.3,22.1c0,1.5-0.5,2.3-1.9,2.9c-16.8,7.1-33.7,14.3-50.5,21.5
		c-17,7.3-34.1,14.6-51.1,21.9c-10.4,4.4-20.7,8.9-31.1,13.3c-0.6,0.2-1.2,0.4-1.8,0.6c0-13.1,0-26.2,0-39.3c0-3.1-0.1-6.2,0-9.4
		c1-41.3,0.2-82.6,0.5-123.9c0-0.9-0.7-2.2,1.1-2.4c0,1,0.1,2.1,0.1,3.1c0,52.6-0.1,105.1-0.1,157.7c0,1.1-0.5,2.2-0.1,3.2
		c0.5-4.4,0.4-8.9,0.7-13.4c0.4-5.5,0.2-11,0.5-16.5c0.5-10.6,0.4-21.3,0.5-31.9c0.2-33.1,0.4-66.2-0.1-99.3
		c-0.3-20.6-0.4-41.3-0.7-61.9C345.4,210.6,345.3,207.9,345.3,205.3z M354.6,186.9c0.5,0.3,0.9,0,1.2-0.4
		C355.3,186.2,354.9,186.5,354.6,186.9z M352.4,187.9l-0.1-0.1l0,0.1L352.4,187.9z"/>
	<path class="st0" d="M205.4,97.8c0.6,1,1.7,0.8,2.6,1c11.5,2.9,23,5.7,34.5,8.5c7.9,1.9,15.8,3.9,23.6,5.8
		c14.9,3.6,29.8,7.3,44.7,10.9c8.6,2.1,17.1,4.2,25.7,6.3c13.1,3.2,26.3,6.5,39.4,9.6c7.9,1.9,15.7,3.9,23.6,5.8
		c10.2,2.5,20.4,4.9,30.6,7.4c0.5,0.1,1.1,0.4,1.6,0.5c-3.8,1.9-7.8,3.3-11.8,5c-2.2,0.9-4.3,2.1-6.7,2.5c-0.5-1.1-1.6-0.9-2.5-1.1
		c-6.6-1.7-13.3-3.3-19.9-4.9c-12-2.9-24-5.9-35.9-8.8c-8.6-2.1-17.1-4.2-25.7-6.3c-9.1-2.2-18.2-4.5-27.4-6.7
		c-9.7-2.4-19.5-4.8-29.2-7.2c-9.8-2.4-19.6-4.8-29.4-7.3c-9.6-2.3-19.2-4.7-28.8-7c-8.7-2.1-17.3-4.3-25.9-6.4
		c-1.9-0.5-3.9-0.5-5.7-1.6c5.3-1.4,10.5-2.9,15.8-4.3C200.9,98.8,203.1,98,205.4,97.8z"/>
	<path class="st2" d="M345.3,205.3c0.1,2.6,0.1,5.3,0.2,7.9c0.3,20.6,0.4,41.3,0.7,61.9c0.5,33.1,0.3,66.2,0.1,99.3
		c-0.1,10.6,0,21.3-0.5,31.9c-0.2,5.5-0.1,11-0.5,16.5c-0.3,4.5-0.2,8.9-0.7,13.4c-0.4-1.1,0.1-2.2,0.1-3.2
		c0-52.6,0-105.1,0.1-157.7c0-1,0-2.1-0.1-3.1c0.1-3.9,0.2-7.8-0.4-11.7c1.2-0.6,0.7-1.7,0.7-2.6c0.1-14.8,0.1-29.7,0.1-44.5
		c0-0.6-0.1-1.1-0.1-1.7C345.2,209.6,345.2,207.4,345.3,205.3z"/>
	<path class="st2" d="M150.7,138.7c2.9-0.2,5.7,0.9,8.4,1.6c12.5,3.1,25,6.3,37.6,9.5c14.5,3.7,29,7.4,43.5,11.2
		c8.3,2.1,16.5,4.5,24.7,6.6c13.4,3.5,26.8,7.2,40.1,11c5.1,1.4,10.1,2.9,15.2,4.4c0.7,0.2,1.5,0.3,1.4,1.3
		c-8.3-2.2-16.5-4.4-24.8-6.6c-26.5-7-53.1-14.1-79.6-21.1c-21.1-5.6-42.3-11.2-63.4-16.8C152.7,139.6,151.5,139.6,150.7,138.7z"/>
	<path class="st1" d="M345.2,211.7c0,0.6,0.1,1.1,0.1,1.7c0,14.8-0.1,29.7-0.1,44.5c0,0.9,0.4,2-0.7,2.6c-0.3-0.8-0.2-1.6-0.2-2.4
		c0-14.7,0-29.4,0-44.1C344.2,213.1,343.6,211.9,345.2,211.7z"/>
	<path class="st2" d="M149.3,138.7c0.5-0.7,1-0.6,1.5,0C150.3,138.7,149.8,138.7,149.3,138.7z"/>
	<path class="st0" d="M434.9,154.4c-0.2,3.9-0.5,7.8-0.9,11.6c-0.3,2.3-0.3,4.6-0.4,6.9c-0.2,3.3-0.8,6.5-0.6,9.8
		c0.1,1.9-1.1,3.3-1.7,4.9c-0.1,0.2-0.5,0.4-0.5,0.4c-1.8-1.2-1.9,0.6-2.4,1.4c-0.8,0.2-1.2-0.8-2-0.4c-0.5,1.8-0.6,3.8-1.4,5.7
		c-1.2-0.7-1.1-2.3-2.2-2.8c-0.3,0-0.4,0.2-0.6,0.4c-1.2,2.2-1.2,2.2-3.1,1c-0.1,0-0.2,0-0.2,0.1c-1.5,2.2-1.5,2.2-3.1,0
		c-0.3,0.4-0.6,0.8-0.8,1.1c-0.3,0-0.3-0.1-0.3-0.3c-0.1-3.7,0.5-7.3,0.9-10.9c0.3-2.3,0.3-4.6,0.4-6.9c0.2-3.2,0.7-6.3,0.6-9.5
		c0-1.7,0.7-3.4,0.4-5.2c1.9-1.1,3.9-1.7,5.9-2.5C427,157.5,430.8,155.6,434.9,154.4z"/>
	<path class="st2" d="M434.9,154.4c-4.1,1.3-8,3.1-12,4.7c-2,0.8-4,1.5-5.9,2.5c-10.3,4.2-20.5,8.4-30.8,12.6
		c-8.6,3.5-17.1,7-25.7,10.5c-1.2,0.5-2.3,1-3.5,1.3c2.1-1.5,4.5-2.3,6.7-3.3c7.8-3.5,15.6-6.8,23.5-10.2c8.2-3.5,16.4-7,24.6-10.5
		c0.5-0.2,1.1-0.3,1.4-0.8c2.4-0.3,4.5-1.6,6.7-2.5c3.9-1.6,8-3,11.8-5c6.1-2.4,12.3-4.8,18.5-7.2c8.4-3.2,16.8-6.3,25.3-9.4
		c0.5-0.2,1.1-0.2,1.6-0.3l0,0c-2.8,1.6-5.8,2.6-8.7,3.8c-10.7,4.4-21.4,8.8-32.1,13.2C435.8,153.9,435.4,154.2,434.9,154.4z"/>
	<path class="st2" d="M354.6,186.9c0.3-0.4,0.6-0.7,1.2-0.4C355.5,186.9,355.2,187.2,354.6,186.9z"/>
	<path class="st2" d="M477.1,136.8c0.1-0.1,0.2-0.2,0.3-0.3c0,0,0.1,0,0.2,0.1C477.5,136.6,477.3,136.7,477.1,136.8
		C477.1,136.8,477.1,136.8,477.1,136.8z"/>
	<polygon class="st2" points="352.4,187.9 352.3,188 352.3,187.9 	"/>
</g>
</svg>
