<svg version="1.1" id="Ebene_1" xmlns="http://www.w3.org/2000/svg" xmlns:xlink="http://www.w3.org/1999/xlink" x="0px" y="0px"
	 viewBox="0 0 540 732" style="enable-background:new 0 0 540 732;" xml:space="preserve">
<style type="text/css">
</style>
<g>
	<path class="st0" d="M266,727c-0.3,0-0.7,0-1,0c-3.7-3.9-9-5.7-12.8-9.2c-8.9-8.4-18.5-9.7-29.3-4.4c-3.5,1.7-6.9,1.2-10.5-0.3
		c-9.8-4-19.8-7.7-29.7-11.6c-2.8-1.1-5.6-1.7-8.7-1.5c-22.3,1-44.6,1.8-66.9,2.8c-3.6,0.2-4.5-0.7-4.4-4.2
		c0.2-11.2,0.1-22.3,0-33.5c0-3.2,0.5-6.2,1.7-9.2c9-23.2,17.8-46.6,26.9-69.8c1.4-3.5,1-4.6-2.8-5.5c-23.2-6-46.3-12.4-69.4-18.5
		c-3.4-0.9-5.9-2.4-8.3-5c-7-8.1-14.2-15.9-21.4-23.8c-1.7-1.8-2.7-3.4-1.9-6.1c3.2-10.1,2-19.9-3-29.2c-0.6-1-0.9-2.1-1.3-3.2
		c-2.7-7.1-7.8-14.4-7.5-21.4c0.3-7,6-13.8,9.3-20.6c0.3-0.6,0.5-1.2,0.9-1.8c1-1.4,0.8-2.6,0-4.1c-4.7-8.2-9.4-16.4-14-24.7
		c0-38.3,0-76.7,0-115c9.8-0.3,19.5,1.5,29.3,2.2c3.1,0.2,4.8-0.7,6.5-3.2c7.2-10.8,14.6-21.5,22.2-32c2.2-3.1,1.8-4.9-0.4-7.6
		c-6.3-7.5-12.1-15.5-18.5-22.9c-2.7-3.1-2-4.4,1.1-6.2c3.8-2.1,7.1-4.9,10.8-7.1c2.4-1.5,3.7-3.3,4.2-6.2
		c2.4-13.6,5.2-27.1,7.5-40.7c0.5-3.1,1.6-3.7,4.5-3.4c7.1,0.9,14.3,1.6,23,2.5c-2.3-2.2-3.4-3.3-4.6-4.4
		c-6.5-5.8-12.9-11.6-19.5-17.2c-1.9-1.6-2.6-2.9-1.1-5.3c3.3-5.2,6.2-10.6,9.2-16c0.7-1.3,1.5-2.4,3.3-2.5
		c12.9-1.2,25.6-4,38.7-0.7c3.4,0.9,5.5,1.9,6.1,5.7c0.7,3.9,2.4,7.6,3.1,11.5c0.8,4,2,5.3,6.1,3.1c3.9-2.2,8.3-3.3,12.3-5.5
		c3.6-1.9,5-0.8,6.3,2.7c1.8,4.9,4.1,9.6,6.2,14.4c-0.1-13-0.9-25.7-1.9-38.5c-0.3-3.3,0.2-5,3.8-5.9c7.4-1.8,14.6-4.5,22-6.4
		c3.5-0.9,4.1-1.7,2.2-5.1c-7.9-13.5-15.3-27.3-23.1-40.8c-1.8-3.1-1.5-4.7,1.3-6.9c5.1-4,9.8-8.5,14.9-12.6
		c2.3-1.9,2.8-3.3,1.4-6.1c-5.9-11.3-11.6-22.8-17.3-34.3c-0.7-1.4-2.1-2.7-1.5-4.5c1.7,0,3.3,0,5,0c3.4,2,7.3,1.4,10.9,1.9
		c16.6,2.5,33.6,2.3,49.4,9c2.5,1,3.8,1.9,3.6,4.9c-0.3,4,0.4,8.1-0.2,12c-1.5,10.5,1.8,19,9.3,26.4c2.3,2.3,4.3,3.6,7.6,3.7
		c16.1,0.7,32.3,1.6,48.4,2.3c3.2,0.1,4.5,0.4,2.7,4.1c-5.2,10.6-9.9,21.4-14.9,32.1c-1.4,3-0.9,3.6,2.3,3.6
		c10.2-0.1,20.3-0.4,30.5,0.1c5.7,0.2,10.1-1.5,14.5-4.9c19.7-14.8,39.6-29.3,59.4-43.9c0.2,0.3,0.5,0.6,0.7,0.9
		c-2.8,4.5-5.6,9-8.9,14.3c10.1-3.7,19.5-6.9,28.7-10.5c3.1-1.2,5-0.8,7.5,1.4c22,19.4,44,38.7,66.2,58c2.3,2,3.5,4.2,4.3,7
		c3,11.8,6,23.5,9.4,35.2c1.2,4.2,1.2,8,0,12.1c-2.5,9.3-3.9,19-7.3,28c-4.1,10.7-2.2,18.2,8.1,23.5c3.1,1.6,3.9,4.4,4.3,7.8
		c3.1,28,6.4,55.9,9.8,83.8c0.6,4.9-0.3,10.6,2.3,14.6c5.3,8,10.7,15.9,17.5,22.8c0,1.3,0,2.7,0,4c-2.9,5.7-3.4,12-4.9,18
		c-2.5,9.9-4.7,19.8-7.2,30.2c-10.3-9.2-19.9-17.8-30.1-27c-0.9,7.1-2,13.5-2.5,19.9c-0.2,3.3-1.7,4.9-4.3,6.5
		c-33.8,20.6-67.6,41.3-101.3,62c-2.9,1.8-4.7,1.9-7.2-0.5c-4-3.8-8.4-7.1-12.6-10.6c-0.7,1.5-0.4,2-0.2,2.6
		c10,22.8,20.1,45.6,30,68.5c1,2.2,2.4,3.9,4.2,5.5c23.2,21.3,46.3,42.7,69.5,63.9c2.7,2.4,2.6,3.5-0.1,5.8
		c-16.1,13.2-32,26.6-48,39.9c-1.6,1.3-3.4,2.3-3,5.2c1.9,15.2,3.6,30.4,5.2,45.7c0.2,2.3,2.2,5.5-0.7,6.7c-4.4,1.9-8,6.9-14,4.3
		c-7.5-3.2-15.1-6-22.6-9.2c-2.9-1.3-5.5-1.4-8.5-0.3c-19.5,7.2-39,14.2-58.5,21.5c-2.7,1-5,1-7.7,0.2c-10.8-3.4-21.6-6.6-32.4-10
		c-2.3-0.7-3.6-0.4-5,1.4C274.8,716.5,270.4,721.7,266,727z"/>
	<path d="M398.4,58.2c0.4-0.3,0.7-1.3,1.3-0.6c0.4,0.5,0.2,1.2-0.6,1.4C398.9,58.8,398.6,58.5,398.4,58.2z"/>
</g>
</svg>
