<?xml version="1.0" encoding="iso-8859-1"?>
<!-- Generator: Adobe Illustrator 19.0.0, SVG Export Plug-In . SVG Version: 6.00 Build 0)  -->
<svg version="1.1" id="Capa_1" xmlns="http://www.w3.org/2000/svg" xmlns:xlink="http://www.w3.org/1999/xlink" x="0px" y="0px"
	 viewBox="0 0 511.996 511.996" style="enable-background:new 0 0 511.996 511.996;" xml:space="preserve">
<path style="fill:#80391B;" d="M388.241,256.892H274.685c-7.172,0-12.985-5.813-12.985-12.985v-97.415
	c0-7.172,5.813-12.985,12.985-12.985H388.24c7.172,0,12.985,5.813,12.985,12.985v97.415
	C401.226,251.079,395.412,256.892,388.241,256.892z"/>
<path style="fill:#414B82;" d="M124.418,511.996c-3.169,0-6.391-0.606-9.503-1.89c-12.751-5.253-18.829-19.849-13.576-32.6
	l43.404-105.347l3.284-78.464c0.576-13.779,12.191-24.5,25.993-23.905c13.779,0.576,24.481,12.214,23.905,25.993l-3.468,82.862
	c-0.122,2.91-0.751,5.775-1.861,8.468l-45.081,109.418C143.544,506.171,134.234,511.996,124.418,511.996z"/>
<path style="fill:#343E6B;" d="M280.719,511.954c-12.297,0.001-23.007-9.082-24.711-21.606l-16.05-117.897l-33.831-92.239
	c-4.748-12.948,1.898-27.294,14.845-32.043c12.948-4.749,27.293,1.898,32.043,14.846l34.764,94.784
	c0.62,1.691,1.056,3.445,1.298,5.23l16.415,120.583c1.86,13.665-7.709,26.25-21.374,28.111
	C282.976,511.878,281.839,511.954,280.719,511.954z"/>
<path style="fill:#64AFFF;" d="M261.7,286.687l-113.96,13.854l-18.788-154.545c-2.023-16.636,9.825-31.761,26.46-33.784l53.716-6.53
	c16.636-2.023,31.761,9.825,33.784,26.46L261.7,286.687z"/>
<circle style="fill:#FFB69E;" cx="192.373" cy="44.919" r="44.919"/>
<path style="fill:#B2552E;" d="M401.213,133.507H300.688c-6.259,0-11.333-5.074-11.333-11.333V56.251
	c0-6.259,5.074-11.333,11.333-11.333h100.525c6.259,0,11.333,5.074,11.333,11.333v65.923
	C412.546,128.433,407.472,133.507,401.213,133.507z"/>
<path style="fill:#FFB69E;" d="M313.359,245.377c-0.713,0-1.434-0.038-2.159-0.116l-82.519-8.871
	c-6.888-0.74-12.902-4.997-15.889-11.249l-38.446-80.45c-4.757-9.954-0.543-21.88,9.411-26.638
	c9.955-4.757,21.881-0.543,26.638,9.411l33.64,70.394l71.437,7.679c10.969,1.18,18.906,11.028,17.727,21.997
	C332.096,237.778,323.434,245.377,313.359,245.377z"/>
<path style="fill:#78BEFF;" d="M194.836,187.569l37.178-14.865l-21.62-45.24c-4.756-9.954-16.683-14.168-26.638-9.411
	c-9.954,4.757-14.168,16.684-9.411,26.638L194.836,187.569z"/>
<g>
</g>
<g>
</g>
<g>
</g>
<g>
</g>
<g>
</g>
<g>
</g>
<g>
</g>
<g>
</g>
<g>
</g>
<g>
</g>
<g>
</g>
<g>
</g>
<g>
</g>
<g>
</g>
<g>
</g>
</svg>
