<?xml version="1.0" encoding="utf-8"?>
<!-- Generator: Adobe Illustrator 22.0.1, SVG Export Plug-In . SVG Version: 6.00 Build 0)  -->
<svg version="1.1" id="Ebene_1" xmlns="http://www.w3.org/2000/svg" xmlns:xlink="http://www.w3.org/1999/xlink" x="0px" y="0px"
	 viewBox="0 0 586 278" style="enable-background:new 0 0 586 278;" xml:space="preserve">
<style type="text/css">
	.st0{fill:#060606;}
	.st1{fill:#2B3883;}
</style>
<g>
	<path class="st0" d="M491.7,230c7.7-8.5,13.7-17.4,11.3-29.6c-1.3-7-5.2-12.5-10.1-17.4c-12.4-12.4-27.9-19.7-44-25.7
		C419.2,146,388.2,140,356.8,136c-40.6-5.1-81.4-6.4-122.2-4c-46.6,2.7-92.7,8.8-136.9,24.9c-2.8,1-5.6,2.2-8.4,3.1
		c-0.6,0.2-1.3-0.1-2.6-0.3c14.2-8.2,28.9-13.9,44-18.5c33.1-10.1,67-15.5,101.4-18.4c34.8-2.9,69.6-3.3,104.3-0.8
		c46.6,3.3,92.6,9.9,136.2,27.8c10.8,4.4,21.1,9.8,30.3,17.1c5.5,4.4,10.4,9.4,13.7,15.7c4,7.7,4.4,15.6,0.5,23.5
		C511.7,217.4,502.3,224.4,491.7,230z"/>
	<path class="st1" d="M432.3,234.6c-8.3,5-16.6,8.4-25.2,11.4c-29.5,10.1-60,14.7-90.9,17.1c-31.3,2.4-62.6,2.2-93.8-1.1
		c-32-3.3-63.6-8.8-93.3-21.9c-8.4-3.7-16.4-8.2-23.2-14.5c-13.2-12.2-13.4-25.6-0.3-37.9c3-2.8,6.4-5.2,9.7-7.9
		c1.5,2-0.3,2.6-1,3.5c-8.1,11-7.6,21.6,1.8,31.5c8.5,9.1,19.4,14.5,30.7,19.2c23.2,9.5,47.6,14.5,72.4,17.9
		c30.1,4.2,60.4,5.2,90.7,3.9c40.5-1.7,80.5-6.7,118.7-21.5C429.5,234,430.4,233.5,432.3,234.6z"/>
	<path class="st1" d="M404.6,40.7c6.9-6.3,14.2-9.5,23.1-6.7c1.4,0.4,3.3,0.9,4,1.9c3.8,5.8,7,3.7,11.4,0.3
		c5.1-3.9,11.5-4.2,17.7-2.3c6.3,2,10,6.9,10.1,14.5c0.2,10.8,0,21.7,0.1,32.5c0,2.4-0.7,3.1-3.1,3.2c-13.4,0.6-13.4,0.7-13.4-12.8
		c0-5.2,0.1-10.3,0-15.5c-0.1-5.6-2.4-7.9-7.4-7.9c-5.4,0-8.9,2.8-9.1,7.8c-0.2,8.2-0.2,16.3,0,24.5c0.1,3.1-0.7,3.9-3.9,3.9
		c-12.6,0-12.6,0.2-12.6-12.6c0-5.2,0.1-10.3,0-15.5c-0.1-5.7-2.3-8-7.2-8.1c-5.6-0.1-9.2,2.9-9.3,8.2c-0.2,8-0.2,16,0,24
		c0.1,3.4-1,4.1-4.2,4.1c-12.3-0.1-12.3,0.1-12.3-12.4c0-11.3,0.1-22.7-0.1-34c0-2.7,0.6-4,3.6-3.7c2,0.2,4,0.3,6,0
		C403,33.3,405.9,34.5,404.6,40.7z"/>
	<path class="st1" d="M533,64.5c0.5,5.1-0.9,11.3,0.9,17.4c0.6,2-0.5,2.2-2.1,2.2c-3.8,0-7.7,0-11.5,0c-0.6,0-1.8-0.1-1.9-0.3
		c-1.2-5.7-3.6-1.5-5.5-0.7c-9.5,4.1-19.1,4.4-28.6,0.3c-6.2-2.7-7.7-8.3-7.3-14.6c0.4-6.2,3.3-10.7,9.4-12.7
		c7.7-2.5,15.8-1.8,23.7-2.9c2.7-0.4,6.2,0.2,6.2-4c0-3.9-3.1-4.9-6.2-5.1c-5.2-0.2-10.9-1.7-13.6,5.1c-0.5,1.3-2,0.8-3.1,0.8
		c-3.2,0-6.3-0.2-9.5,0.1c-4.1,0.4-4.2-1.2-3.2-4.6c2-6.2,6.4-9.7,12.3-11.1c9.2-2.2,18.5-2.2,27.7,0.2c8.6,2.2,12.1,7,12.2,15.9
		C533,54.8,533,59.1,533,64.5z M503.1,74.8c8.4-0.1,14-4.4,13.9-11c0-1.1,0.8-3-1.7-2.6c-5.4,0.9-10.8,1.7-16.2,2.6
		c-2.4,0.4-3.8,1.8-4,4.3c-0.2,2.4,0.8,4.2,2.8,5.5C499.4,74.6,501.2,74.9,503.1,74.8z"/>
	<path class="st1" d="M131,69.2c-1.9,7.8-7,12.1-13.7,14.5c-9.5,3.4-19.3,3.4-28.9,0.1c-10.3-3.6-15.9-13.3-15.3-25.5
		C74,44.7,80.7,36,92.7,33.1c6.8-1.6,13.6-1.6,20.3,0.1c12,3,20.9,16.7,19.1,28.8c-0.4,2.8-2.2,2-3.7,2c-11.3,0.1-22.7,0.2-34,0
		c-4.6-0.1-4.2,1.7-2.6,4.7c3,5.7,12.9,8.9,17.7,4.4c4.5-4.2,9.2-3.8,14.2-3.8C126,69.1,128.3,69.2,131,69.2z M102.3,54
		c3.2,0,6.3-0.2,9.5,0.1c3.3,0.2,3-1.4,2.2-3.5c-1.8-4.5-5.2-6.8-9.9-7.3c-4.8-0.5-8.9,0.9-11.7,5.1c-1,1.5-2.3,3.3-1.3,5
		c0.8,1.3,2.8,0.5,4.2,0.5C97.6,54.1,100,54,102.3,54z"/>
	<path class="st1" d="M220,41c6.6-7.1,14-9.2,22.4-7.5c7.6,1.5,12.3,6.4,12.7,14c0.5,11.3,0.3,22.6,0.4,34c0,2-0.9,2.7-2.7,2.5
		c-0.2,0-0.3,0-0.5,0C239,84.7,239,84.7,239,71.6c0-4.7,0-9.3,0-14c-0.1-6.4-2.4-9.4-7.6-9.8c-6.1-0.5-10.4,2.8-11.2,8.9
		c-0.4,3.6-0.2,7.3-0.2,11c0,4.5-0.1,9,0,13.5c0.1,2.2-0.7,2.7-2.8,2.9c-13.6,0.8-13.6,0.9-13.6-12.6c0-16.5,0.1-33-0.1-49.5
		c0-3.6,0.6-5.2,4.8-5.1c11.7,0.3,11.7,0,11.7,12C220,32.5,220,36.2,220,41z"/>
	<path class="st1" d="M351.8,86c-4.3,0.2-8.2-0.4-12.1-1.5C327,81,320.1,69,322.2,54.4c1.8-12.5,8.6-19.4,21.2-21.7
		c6.3-1.2,12.6-1,18.8,0.4c12.2,2.7,19.2,12,19.2,25.5c0,14.2-6.9,23.6-19.5,26.3C358.6,85.7,355.1,86.3,351.8,86z M364,59.3
		c0.1-9.2-4.2-14.2-12.2-14.3c-7.8,0-12.3,4.9-12.4,13.7c-0.1,8.8,4.3,14.1,11.8,14.3C359.4,73.2,363.9,68.3,364,59.3z"/>
	<path class="st1" d="M185.6,53.5c-2.9,0.1-6.5,0.5-9.3-4.9c-3.5-6.7-16.9-4.2-19.9,3.2c-2,4.8-2,9.8,0,14.6
		c1.9,4.6,5.7,6.7,10.7,6.7c4.9,0,9.1-1.3,10.9-6.2c1-2.8,2.4-3.6,5.1-3.3c2.3,0.2,4.7,0.1,7,0.1c7.3,0,7.5,0.2,4.6,7.2
		c-2.8,6.9-7.6,11.6-14.9,13.6c-8.4,2.3-16.8,2.5-25.1,0c-11.3-3.4-16.8-11.5-17.1-24.6c-0.3-12.6,5.3-21.9,16-25.5
		c9.6-3.2,19.3-3.2,28.9,0.3c6.6,2.4,10.5,7.3,12.5,13.9c1,3.5,0.9,5.9-3.8,5.1C189.8,53.3,188.4,53.5,185.6,53.5z"/>
	<path class="st1" d="M278.8,41.7c7.8-7.7,15.3-10.1,24.1-8c7,1.7,11.7,6.3,12,13.5c0.6,11.5,0.3,23,0.5,34.4c0,1.6-0.5,2.6-2.2,2.4
		c-0.2,0-0.3,0-0.5,0C299,85.2,299,85.2,299,71.6c0-4.8,0.1-9.7,0-14.5c-0.1-5.6-2.2-8.5-6.5-9.2c-5.8-0.9-9.9,1.5-11.7,6.8
		c-1.2,3.4-0.6,6.9-0.7,10.4c-0.1,5.3-0.1,10.7,0,16c0,2.1-0.6,3.2-2.8,2.9c-0.2,0-0.3,0-0.5,0c-13.1,0.6-13.1,0.6-13.1-12.5
		c0-11.3,0.1-22.6-0.1-34c0-2.8,0.6-4,3.5-3.6c1.6,0.2,3.3,0,5,0C276.1,34.1,281.6,32.3,278.8,41.7z"/>
	<path class="st1" d="M48.7,18c8.5,0,17,0.1,25.4-0.1c3-0.1,4.4,0.5,4.4,4c0,10.9,0.2,10.9-10.9,10.9c-9.6,0-9.6,0-9.6,9.5
		c0,12.5-0.1,25,0.1,37.4c0,2.9-0.2,4.7-3.9,4.3c-4.7-0.6-11.1,2-13.8-1c-2.3-2.7-0.7-8.9-0.7-13.5c0-10.3-0.2-20.6,0.1-30.9
		c0.1-4.4-0.8-6.4-5.6-5.8c-3.9,0.4-8,0-12,0.1c-2.4,0.1-3.1-0.7-3.2-3.1C18.3,18,18.3,18,29.7,18C36.1,18,42.4,18,48.7,18z"/>
	<path class="st1" d="M556,18c8,0,8,0,8,8.1c0,0.5,0.1,1,0,1.5c-0.9,5,0.9,7.4,6.2,6.4c4-0.8,5.4,0.9,4.8,4.8c-0.2,1-0.2,2,0,3
		c0.9,4.6-1.3,5.9-5.4,5.2c-4.4-0.8-6.1,0.9-5.7,5.5c0.4,4.8,0.2,9.7,0.1,14.5c-0.1,3.6,1.4,5.1,5,5.1c2,0,5.3-1.3,5.8,0.9
		c0.9,3.3,0.2,6.9,0.1,10.4c-0.1,0.9-1.3,0.8-2.1,1c-5.3,0.8-10.6,1.2-15.9,0.2c-6-1.1-8.8-4-9.1-10.1c-0.4-7.6-0.4-15.3-0.2-23
		c0.1-3.4-0.8-5.1-4.4-4.4c-3.9,0.7-5-1.1-4.5-4.7c0.2-1.3,0.2-2.7,0-4c-0.5-3.5,0.8-5,4.3-4.4c4,0.8,5-1.2,4.5-4.7c-0.1-1,0-2,0-3
		C547.6,18,547.6,18,556,18z"/>
</g>
</svg>
