<?xml version="1.0" encoding="utf-8"?>
<!-- Generator: Adobe Illustrator 22.0.1, SVG Export Plug-In . SVG Version: 6.00 Build 0)  -->
<svg version="1.1" id="Capa_1" xmlns="http://www.w3.org/2000/svg" xmlns:xlink="http://www.w3.org/1999/xlink" x="0px" y="0px"
	 viewBox="0 0 561 359" style="enable-background:new 0 0 561 359;" xml:space="preserve">
<style type="text/css">
	.st0{fill:#F44336;}
	.st1{fill:#FAFAFA;}
	.st2{fill:#FFC107;}
	.st3{fill:#455A64;}
</style>
<path class="st0" d="M509.7,199.8l-48-80c-2.9-4.8-8.1-7.8-13.7-7.8H336c-8.8,0-16,7.2-16,16v160c0,8.8,7.2,16,16,16h160
	c8.8,0,16-7.2,16-16v-80C512,205.1,511.2,202.2,509.7,199.8z"/>
<polygon class="st1" points="384,144 438.9,144 477.3,208 384,208 "/>
<path class="st2" d="M336,48H112c-8.8,0-16,7.2-16,16v224c0,8.8,7.2,16,16,16h240V64C352,55.2,344.8,48,336,48z"/>
<circle class="st1" cx="432" cy="288" r="32"/>
<path class="st3" d="M432,336c-26.5,0-48-21.5-48-48s21.5-48,48-48s48,21.5,48,48S458.5,336,432,336z M432,272c-8.8,0-16,7.2-16,16
	s7.2,16,16,16s16-7.2,16-16S440.8,272,432,272z"/>
<path class="st0" d="M352,304H112c-8.8,0-16-7.2-16-16v-48h256V304z"/>
<circle class="st1" cx="208" cy="288" r="32"/>
<path class="st3" d="M208,336c-26.5,0-48-21.5-48-48s21.5-48,48-48s48,21.5,48,48S234.5,336,208,336z M208,272c-8.8,0-16,7.2-16,16
	s7.2,16,16,16s16-7.2,16-16S216.8,272,208,272z"/>
</svg>
